<svg xmlns="http://www.w3.org/2000/svg" x="0px" y="0px"
                width="50" height="50"
                viewBox="0 0 172 172"
                style=" fill:#000000;"><g fill="none" fill-rule="nonzero" stroke="none" stroke-width="1" stroke-linecap="butt" stroke-linejoin="miter" stroke-miterlimit="10" stroke-dasharray="" stroke-dashoffset="0" font-family="none" font-weight="none" font-size="none" text-anchor="none" style="mix-blend-mode: normal"><path d="M0,172v-172h172v172z" fill="none"></path><g fill="#fbb03b"><path d="M86,6.88c-2.45906,0 -4.91812,0.61813 -7.10844,1.85438l-57.9425,32.55906c-4.43438,2.48594 -7.18906,7.14875 -7.18906,12.1475v65.11813c0,4.99875 2.75469,9.66156 7.18906,12.1475l57.9425,32.55906c2.19031,1.23625 4.64937,1.85437 7.10844,1.85437c2.45906,0 4.91813,-0.61812 7.10844,-1.85437l57.9425,-32.54563c4.43438,-2.49937 7.18906,-7.16219 7.18906,-12.16094v-65.11813c0,-4.99875 -2.75469,-9.66156 -7.18906,-12.1475l-57.9425,-32.55906c-2.19031,-1.23625 -4.64937,-1.85438 -7.10844,-1.85438zM86,44.72c13.0075,0 25.03406,6.03344 32.82781,16.29969l-15.07688,8.73438c-4.52844,-4.95844 -10.965,-7.83406 -17.75094,-7.83406c-13.27625,0 -24.08,10.80375 -24.08,24.08c0,13.27625 10.80375,24.08 24.08,24.08c6.78594,0 13.2225,-2.87562 17.75094,-7.83406l15.07688,8.73438c-7.79375,10.26625 -19.82031,16.29969 -32.82781,16.29969c-22.76312,0 -41.28,-18.51687 -41.28,-41.28c0,-22.76312 18.51688,-41.28 41.28,-41.28zM120.4,68.8h6.88v6.88h6.88v-6.88h6.88v6.88h6.88v6.88h-6.88v6.88h6.88v6.88h-6.88v6.88h-6.88v-6.88h-6.88v6.88h-6.88v-6.88h-6.88v-6.88h6.88v-6.88h-6.88v-6.88h6.88zM127.28,82.56v6.88h6.88v-6.88z"></path></g></g></svg>